# AST/ASF file generated using VICON BodyLanguage
# -----------------------------------------------
:version 1.10
:name VICON
:units
  mass 1.0
  length 0.45
  angle deg
:documentation
   .ast/.asf automatically generated from VICON data using
   VICON BodyBuilder and BodyLanguage model FoxedUp or BRILLIANT.MOD
:root
   order TX TY TZ RX RY RZ
   axis XYZ
   position 0 0 0  
   orientation 0 0 0 
:bonedata
  begin
     id 1 
     name lhipjoint
     direction 0.70531 -0.63749 0.310071 
     length 2.59589 
     axis 0 0 0  XYZ
  end
  begin
     id 2 
     name lfemur
     direction 0.34202 -0.939693 0  
     length 6.19797  
     axis 0 0 20  XYZ
    dof rx ry rz
    limits (-160.0 20.0)
           (-70.0 70.0)
           (-60.0 70.0)
  end
  begin
     id 3 
     name ltibia
     direction 0.34202 -0.939693 0   
     length 7.80054   
     axis 0 0 20   XYZ
    dof rx
    limits (-10.0 170.0)
  end
  begin
     id 4 
     name lfoot
     direction 0.0828572 -0.227648 0.970212   
     length 1.88124   
     axis -90 7.62852e-016 20   XYZ
    dof rx rz
    limits (-45.0 90.0)
           (-70.0 20.0)
  end
  begin
     id 5 
     name ltoes
     direction 1.53544e-011 -4.219e-011 1   
     length 0.948015   
     axis -90 7.62852e-016 20   XYZ
    dof rx
    limits (-90.0 20.0)
  end
  begin
     id 6 
     name rhipjoint
     direction -0.730062 -0.614543 0.29891   
     length 2.69282  
     axis 0 0 0  XYZ 
  end
  begin
     id 7 
     name rfemur
     direction -0.34202 -0.939693 0   
     length 5.86298   
     axis 0 0 -20   XYZ
    dof rx ry rz
    limits (-160.0 20.0)
           (-70.0 70.0)
           (-70.0 60.0)
  end
  begin
     id 8 
     name rtibia
     direction -0.34202 -0.939693 0   
     length 7.72374   
     axis 0 0 -20   XYZ
    dof rx
    limits (-10.0 170.0)
 end
 begin
     id 9 
     name rfoot
     direction -0.0967421 -0.265797 0.959163   
     length 2.02368  
     axis -90 -7.62852e-016 -20   XYZ
    dof rx rz
    limits (-45.0 90.0)
           (-20.0 70.0)
  end
  begin
     id 10 
     name rtoes
     direction -1.53524e-011 -4.21768e-011 1   
     length 1.01373   
     axis -90 -7.62852e-016 -20   XYZ
    dof rx
    limits (-90.0 20.0)
  end
  begin
     id 11 
     name lowerback
     direction 0.00561702 0.992801 -0.119643   
     length 2.02816   
     axis 0 0 0   XYZ
    dof rx ry rz
    limits (-20.0 45.0)
           (-30.0 30.0)
           (-30.0 30.0)
  end
  begin
     id 12 
     name upperback
     direction 0.00155544 0.995735 -0.0922509   
     length 2.02265   
     axis 0 0 0   XYZ
    dof rx ry rz
    limits (-20.0 45.0)
           (-30.0 30.0)
           (-30.0 30.0)
  end
  begin
     id 13 
     name thorax
     direction -0.000937535 0.999317 -0.0369292   
     length 2.04823   
     axis 0 0 0   XYZ
    dof rx ry rz
    limits (-20.0 45.0)
           (-30.0 30.0)
           (-30.0 30.0)
  end
  begin
     id 14 
     name lowerneck
     direction -0.0813151 0.981659 0.172436   
     length 1.8875   
     axis 0 0 0   XYZ
    dof rx ry rz
    limits (-20.0 45.0)
           (-30.0 30.0)
           (-30.0 30.0)
  end
  begin
     id 15 
     name upperneck
     direction 0.119359 0.955672 -0.269157   
     length 1.92801   
     axis 0 0 0   XYZ
    dof rx ry rz
    limits (-20.0 45.0)
           (-30.0 30.0)
           (-30.0 30.0)
  end
  begin
     id 16
     name head
     direction 0.0421007 0.992672 -0.113268  
     length 1.95809  
     axis 0 0 0   XYZ
    dof rx ry rz
    limits (-20.0 45.0)
           (-30.0 30.0)
           (-30.0 30.0)
  end
  begin
     id 17 
     name lclavicle
     direction 0.944093 0.32865 -0.0260136  
     length 3.84992  
     axis 0 0 0   XYZ
    dof ry rz
    limits (-20.0 10.0)
           (0.0 20.0)
  end
  begin
     id 18 
     name lhumerus
     direction 1 -4.48979e-011 -1.27712e-029   
     length 5.53593   
     axis 180 -30 -90   XYZ
    dof rx ry rz
    limits (-60.0 90.0)
           (-90.0 90.0)
           (-90.0 90.0)
  end
  begin
     id 19
     name lradius
     direction 1 -4.48966e-011 1.00051e-028   
     length 3.13345   
     axis 180 -30 -90   XYZ
    dof rx
    limits (-10.0 170.0)
  end
  begin
     id 20
     name lwrist
     direction 1 -4.4896e-011 2.56952e-028   
     length 1.56673   
     axis -5.12785e-016 90 90   XYZ
    dof ry
    limits (-180.0 0.0)
 end
  begin
     id 21 
     name lhand
     direction 1 -4.48934e-011 5.13905e-028   
     length 0.713374   
     axis -3.27915e-016 90 90   XYZ
    dof rx rz
    limits (-90.0 90.0)
           (-45.0 45.0)
  end
  begin
     id 22 
     name lfingers
     direction 1 -4.48973e-011 1.02781e-027   
     length 0.575141   
     axis -6.5583e-016 90 90   XYZ
    dof rx
    limits (0.0 90.0)
  end
  begin
     id 23
     name lthumb
     direction 0.707107 -6.34883e-011 0.707107   
     length 0.82579   
     axis -90 45 2.85299e-015   XYZ
    dof rx rz
    limits (-45.0 45.0)
           (-45.0 45.0)
  end
  begin
     id 24 
     name rclavicle
     direction -0.936895 0.34884 0.0232243   
     length 3.53304  
     axis 0 0 0   XYZ 
    dof ry rz
    limits (-10.0 20.0)
           (-20.0 0.0)
  end
  begin
     id 25 
     name rhumerus
     direction -1 -4.48965e-011 1.05514e-027  
     length 5.4685   
     axis 180 30 90   XYZ
    dof rx ry rz
    limits (-90.0 60.0)
           (-90.0 90.0)
           (-90.0 90.0)
  end
  begin
     id 26 
     name rradius
     direction -1 -4.48964e-011 -1.1079e-027   
     length 3.22411   
     axis 180 30 90   XYZ
    dof rx
    limits (-10.0 170.0)
  end
  begin
     id 27 
     name rwrist
     direction -1 -4.48973e-011 2.56952e-028   
     length 1.61206   
     axis -5.12785e-016 -90 -90   XYZ
    dof ry
    limits (-180.0 0.0)
  end
  begin
     id 28
     name rhand
     direction -1 -4.48957e-011 5.13905e-028   
     length 0.74528   
     axis -3.27915e-016 -90 -90   XYZ
    dof rx rz
    limits (-90.0 90.0)
           (-45.0 45.0)
  end
  begin
     id 29
     name rfingers
     direction -1 -4.4901e-011 1.02781e-027   
     length 0.600864   
     axis -6.5583e-016 -90 -90   XYZ
    dof rx
    limits (0.0 90.0)
  end
  begin
     id 30
     name rthumb
     direction -0.707107 -6.34972e-011 0.707107   
     length 0.862724   
     axis -90 -45 -2.85299e-015   XYZ
    dof rx rz
    limits (-45.0 45.0)
           (-45.0 45.0)
  end
:hierarchy
  begin
    root lhipjoint rhipjoint lowerback
    lhipjoint lfemur
    lfemur ltibia
    ltibia lfoot
    lfoot ltoes
    rhipjoint rfemur
    rfemur rtibia
    rtibia rfoot
    rfoot rtoes
    lowerback upperback
    upperback thorax
    thorax lowerneck lclavicle rclavicle
    lowerneck upperneck
    upperneck head
    lclavicle lhumerus
    lhumerus lradius
    lradius lwrist
    lwrist lhand lthumb
    lhand lfingers
    rclavicle rhumerus
    rhumerus rradius
    rradius rwrist
    rwrist rhand rthumb
    rhand rfingers
  end

#!OML:ASF G:\Work\Work\Patient Classification 1\Liu\Session 1\Liu.ASF
:FULLY-SPECIFIED
:DEGREES
291
root 9.87676 16.3141 4.97907 3.49313 3.33711 -3.56505
lowerback -0.0698988 -0.476289 3.72292
upperback -0.258794 -0.629517 1.24201
thorax -0.252371 -0.321051 -0.811903
lowerneck -23.1013 -5.8814 -12.6634
upperneck 27.8713 -7.84777 12.7139
head 14.5535 -3.02924 5.87475
rclavicle 7.48238e-015 1.0635e-014
rhumerus -43.6945 16.9278 -91.1292
rradius 39.1327
rwrist -11.6519
rhand -14.2742 17.8542
rfingers 7.12502
rthumb 11.8647 -11.7897
lclavicle 7.48238e-015 1.0635e-014
lhumerus -32.3085 -16.0023 91.0525
lradius 34.6099
lwrist 6.79343
lhand -14.3118 32.6768
lfingers 7.12502
lthumb 11.8285 62.3227
rfemur -5.32276 0.0559273 28.9964
rtibia 17.0811
rfoot -12.4229 -2.13965
rtoes -15.7427
lfemur -37.5331 9.30331 -21.3572
ltibia 78.5643
lfoot -10.4823 11.5296
ltoes -2.24214
292
root 9.87861 16.2731 5.17584 3.58214 2.9179 -3.62603
lowerback -0.0789739 -0.321645 3.79842
upperback -0.149347 -0.427462 1.22259
thorax -0.127355 -0.217105 -0.874996
lowerneck -23.0214 -5.87294 -12.685
upperneck 27.7042 -7.82381 12.7323
head 14.4605 -3.02036 5.88091
rclavicle 1.23961e-014 1.04362e-014
rhumerus -43.1816 17.4532 -90.9696
rradius 40.0071
rwrist -12.1012
rhand -13.7717 17.1927
rfingers 7.12502
rthumb 12.3493 -12.4226
lclavicle 1.23961e-014 1.04362e-014
lhumerus -33.0237 -16.2645 91.356
lradius 34.9169
lwrist 7.47734
lhand -14.3043 32.9873
lfingers 7.12502
lthumb 11.8357 62.6329
rfemur -4.88567 -0.0742197 29.1495
rtibia 17.5152
rfoot -13.0613 -1.88727
rtoes -14.3225
lfemur -39.0558 9.43647 -21.7515
ltibia 77.6229
lfoot -11.0797 11.2171
ltoes -1.74239
293
root 9.87939 16.2412 5.38344 3.61382 2.56131 -3.74416
lowerback -0.00456384 -0.16839 4.0085
upperback -0.100215 -0.221 1.14806
thorax -0.110901 -0.11338 -1.06882
lowerneck -23.1249 -5.78379 -12.594
upperneck 27.8313 -7.72446 12.7249
head 14.5165 -2.96573 5.88994
rclavicle 1.05325e-014 -4.62174e-015
rhumerus -42.8207 17.983 -91.0174
rradius 40.812
rwrist -12.6197
rhand -13.5983 16.4779
rfingers 7.12502
rthumb 12.5164 -13.1273
lclavicle 1.05325e-014 -4.62174e-015
lhumerus -34.0101 -16.6993 91.6989
lradius 35.0247
lwrist 7.71553
lhand -15.0668 32.2897
lfingers 7.12502
lthumb 11.1003 61.9761
rfemur -4.33137 -0.0455377 29.3706
rtibia 17.9786
rfoot -13.7876 -1.89911
rtoes -14.0743
lfemur -40.3634 9.49897 -22.0318
ltibia 76.3678
lfoot -11.522 10.5955
ltoes -1.25265
294
root 9.8798 16.2145 5.59393 3.63902 2.09235 -4.13635
lowerback 0.218498 0.0271862 4.48547
upperback -0.160408 0.0550674 1.13448
thorax -0.284204 0.0199082 -1.3497
lowerneck -22.9824 -5.59279 -12.6142
upperneck 27.8578 -7.52526 12.94
head 14.4757 -2.85869 6.02945
rclavicle -1.26011e-014 -2.06736e-014
rhumerus -42.6009 18.2548 -91.0123
rradius 41.6076
rwrist -13.1746
rhand -13.4301 16.1593
rfingers 7.12502
rthumb 12.6786 -13.4358
lclavicle -1.26011e-014 -2.06736e-014
lhumerus -34.9121 -16.9961 91.9997
lradius 35.0176
lwrist 7.86842
lhand -15.1576 32.6156
lfingers 7.12502
lthumb 11.0128 62.3067
rfemur -3.73913 0.271811 29.9126
rtibia 18.4232
rfoot -14.296 -2.22169
rtoes -15.6936
lfemur -41.6085 9.66875 -21.9396
ltibia 74.8774
lfoot -11.9114 9.96709
ltoes -0.224623
295
root 9.88159 16.1892 5.80098 3.72228 1.64238 -4.47529
lowerback 0.360162 0.182593 4.80753
upperback -0.196267 0.273579 1.18411
thorax -0.387061 0.125773 -1.4802
lowerneck -22.588 -5.52024 -12.6978
upperneck 27.6646 -7.45151 13.0558
head 14.3027 -2.8325 6.09566
rclavicle -4.59146e-015 -2.19657e-014
rhumerus -42.2615 18.7539 -90.9143
rradius 42.3891
rwrist -13.8561
rhand -13.3624 16.4673
rfingers 7.12502
rthumb 12.7439 -13.1238
lclavicle -4.59146e-015 -2.19657e-014
lhumerus -35.7024 -17.139 92.3618
lradius 34.8189
lwrist 8.0968
lhand -15.4403 32.3599
lfingers 7.12502
lthumb 10.7401 62.0653
rfemur -3.09464 0.682784 30.3987
rtibia 18.6689
rfoot -14.7548 -2.59406
rtoes -16.6231
lfemur -42.7777 9.72955 -21.8702
ltibia 73.1067
lfoot -12.3268 9.52132
ltoes -0.697398
296
root 9.88826 16.162 6.00858 3.80483 1.41505 -4.54824
lowerback 0.327008 0.235297 4.86918
upperback -0.26306 0.344617 1.20038
thorax -0.432536 0.15913 -1.49838
lowerneck -21.9281 -5.45985 -12.6956
upperneck 27.5098 -7.38591 12.9305
head 14.0738 -2.84037 6.04145
rclavicle -7.61128e-015 1.3418e-015
rhumerus -42.082 19.4815 -90.9049
rradius 43.159
rwrist -14.3684
rhand -13.9014 17.2371
rfingers 7.12502
rthumb 12.2242 -12.3856
lclavicle -7.61128e-015 1.3418e-015
lhumerus -36.7029 -16.9457 92.6762
lradius 34.7026
lwrist 7.88178
lhand -15.6104 31.9079
lfingers 7.12502
lthumb 10.576 61.6218
rfemur -2.304 0.714324 30.537
rtibia 18.7139
rfoot -15.2459 -2.62363
rtoes -15.4241
lfemur -43.7342 9.49443 -22.0918
ltibia 70.9701
lfoot -12.4942 9.33531
ltoes -3.04859
297
root 9.89904 16.1301 6.21292 3.93601 1.20489 -4.66765
lowerback 0.417288 0.318928 5.06278
upperback -0.137543 0.458062 1.22339
thorax -0.345922 0.219092 -1.58364
lowerneck -22.4583 -5.53197 -12.8103
upperneck 27.6574 -7.39476 12.9262
head 14.2595 -2.8412 6.0695
rclavicle 4.95564e-015 6.08778e-016
rhumerus -41.2675 19.9583 -90.5431
rradius 43.8503
rwrist -14.7155
rhand -14.4877 17.9865
rfingers 7.12502
rthumb 11.6589 -11.6691
lclavicle 4.95564e-015 6.08778e-016
lhumerus -37.0689 -16.5593 92.7537
lradius 34.5429
lwrist 7.03913
lhand -15.0787 32.0302
lfingers 7.12502
lthumb 11.0888 61.7172
rfemur -1.56713 0.553487 30.6562
rtibia 18.6782
rfoot -15.5662 -2.41762
rtoes -14.3224
lfemur -44.5551 9.17045 -22.2081
ltibia 68.5355
lfoot -12.799 9.05399
ltoes -3.23252
